<svg viewBox="0 0 465 306" class="FCCfire" xmlns="http://www.w3.org/2000/svg"><g fill="#006400" fill-rule="evenodd"><path d="M.734 147.008c0-47.07 16.694-89.185 50.333-126.594C63.207 7.037 73.325.1 80.154.1c2.276 0 4.553.743 6.83 2.23 1.517 1.486 3.034 3.716 3.034 5.945 0 3.716-4.552 8.919-12.9 17.342-35.156 32.949-52.861 73.33-52.861 122.134 0 54.006 18.464 97.36 54.38 131.052 7.587 6.69 10.622 11.892 10.622 16.35 0 2.23-1.517 4.46-3.035 6.69-1.517 1.486-4.552 2.972-6.829 2.972-8.346 0-19.981-9.661-35.157-28.49C14.645 240.653.734 198.042.734 147.009zM464.1 158.899c0 47.07-16.693 89.185-50.333 126.593-12.14 13.378-22.258 20.314-29.087 20.314-2.276 0-4.552-.743-6.829-2.23-1.517-1.486-3.035-4.458-3.035-6.688 0-3.716 4.553-8.919 12.9-16.35 35.157-32.95 52.862-73.33 52.862-122.135 0-54.006-18.464-97.36-54.38-131.052-7.588-6.689-10.623-11.891-10.623-16.35 0-2.23 1.517-4.46 3.035-6.69 1.518-1.486 4.553-2.972 6.83-2.972 7.587 0 19.98 9.661 35.156 28.49 28.075 35.673 43.504 78.284 43.504 129.07zM338.598 295.486h-212.03c-7.595 0-13.291-5.579-13.291-13.018 0-7.44 5.696-13.019 13.291-13.019h212.03c7.596 0 13.292 5.58 13.292 13.019-1.899 7.44-5.696 13.018-13.292 13.018zM187.396 25.617S205.1 37.508 205.1 59.309c0 37.408-52.103 78.532-52.103 117.427 0 41.867 32.88 68.87 64.243 77.046 4.553.743 6.07-3.716.76-5.203-12.9-2.972-26.811-19.57-26.811-44.84 0-24.03 23.775-32.949 32.88-44.097 9.865-11.891 7.588-27.003 1.518-31.462-6.07-4.46-1.517-10.405 8.347-2.973 9.864 6.689 18.464 20.314 15.175 32.205-3.793 15.608 1.518 24.774 9.865 26.26 8.346 1.487 17.705-2.972 16.693-10.404-1.012-7.432-5.311-15.608-3.035-15.608 6.07 0 18.464 14.121 18.464 37.408 0 23.288-19.223 38.895-25.293 44.84-3.794 3.717.759 8.176 6.07 5.946 2.276-.743 7.588-3.716 10.623-5.945 15.176-10.405 38.951-32.206 38.951-71.844 0-41.867-15.934-60.695-32.88-76.303-16.694-15.607-20.74-11.891-15.935-3.716 13.658 23.288 5.311 31.463-4.553 31.463-12.14 0-12.14-26.26-17.705-46.327-9.864-44.84-52.103-52.52-59.691-53.263-5.565-2.477-12.647 1.982-3.288 5.698z"/></g></svg>
